Patient4_TMGait_0pt7_02_right_21_EMG.mot
version=1
nRows=36
nColumns=33
inDegrees=no
endheader
time	1LAddLong	2LGlutMax	3LGlutMed	4LIliopsoas	5LSemiMemb	6LBicFemLong	7LRecFem	8LVastMed	9LVastLat	10LGasMed	11LTibAnt	12lTibPost	13LPeroneusLong	14LSol	15LExtDigLong	16LFlexDigLong	17RAddLong	18RGlutMax	19RGlutMed	20RIliopsoas	21RSemiMemb	22RBicFemLong	23RRecFem	24RVastMed	25RVastLat	26RGasMed	27RTibAnt	28RTibPost	29RPeroneusLong	30RSol	31RExtDigLong	32RFlexDigLong
24.09	0.025635	0.61661	-0.065918	-0.014801	0.19684	-0.26032	0.016632	-0.045776	-0.21378	-0.039368	0.086975	-0.017548	0.042419	0.015717	-0.19318	-0.002899	0.016632	-0.17777	0.12924	-0.06958	0.46112	0.029602	-0.72083	-0.05661	0.001221	0.011444	0.014648	0.000916	0.21957	-0.003815	0.000763	-0.009155
24.091	0.050964	0.58334	0.014954	-0.008698	0.19119	-0.31815	0.031281	-0.044098	-0.2475	-0.027466	0.017242	-0.021515	0.033875	-0.02243	-0.21774	-0.002441	0.011902	-0.22598	0.14221	-0.12497	0.45013	0.053864	-0.69992	-0.075836	0.002899	0.006256	0.027924	-0.003357	0.3714	0.005646	-0.000153	-0.011292
24.092	0.033722	0.58243	0.071411	-0.011139	0.19211	-0.20233	0.069275	-0.033569	-0.13473	-0.014191	-0.044403	-0.022583	0.0354	-0.085602	-0.20081	-0.003662	0.004883	-0.13657	0.1001	-0.12451	0.44449	0.003967	-0.72678	-0.055542	0.011292	-0.01709	0.055389	0.000458	0.35294	0.034332	0.002289	-0.010986
24.093	0.001831	0.54153	0.1561	-0.004883	0.13001	-0.17441	0.042419	-0.018158	-0.11154	-0.019379	-0.096741	-0.02243	0.046997	-0.11871	-0.14282	0.008392	-0.00061	-0.12589	0.058594	-0.036163	0.47348	-0.09201	-0.71182	-0.053253	0.002136	-0.029144	0.065002	-0.003357	0.21973	-0.090332	0.001984	-0.011902
24.094	-0.018921	0.56259	0.13016	-0.001831	0.045776	-0.24353	0.078583	-0.007019	-0.24338	-0.020447	-0.055084	-0.017853	0.054474	-0.036621	-0.079498	0.003662	0.025482	-0.12817	0.11002	-0.008545	0.5069	-0.09613	-0.66483	-0.042877	0.00412	-0.035858	-0.060272	-0.006409	0.059509	-0.12009	0.000763	-0.013733
24.095	-0.017395	0.56976	0.066223	0.00351	-0.011902	-0.20798	0.080566	-0.005798	-0.37827	-0.016022	-0.03952	-0.017242	0.0354	0.042114	0.2327	-0.001526	0.030212	-0.12161	0.076447	0.013428	0.54474	-0.091095	-0.6665	-0.091553	-0.016632	-0.032959	0.028687	-0.001526	-0.046234	-0.17883	-0.001678	-0.007629
24.096	-0.016479	0.625	0.057678	-0.00946	-0.029297	-0.28854	0.043945	-0.008392	-0.46951	-0.028534	0.012512	-0.014801	0.02594	0.047913	0.24933	-0.005188	0.017395	-0.074768	-0.063477	0.005341	0.54398	-0.083771	-0.66818	-0.066986	-0.014496	-0.023041	0.29526	0.001373	-0.14358	-0.18188	0.000458	-0.015564
24.097	-0.00885	0.68817	0.030823	-0.014343	-0.020447	-0.11261	-0.063324	-0.012817	-0.23178	-0.014191	0.032501	-0.017853	0.010223	0	-0.005798	0.001373	0.021515	-0.075531	-0.11444	0.0354	0.49591	-0.054626	-0.63202	-0.009613	-0.027924	-0.006104	0.47531	-0.001678	-0.00824	-0.18112	-0.001831	-0.00946
24.098	-0.006866	0.61722	-0.001221	0.00412	-0.038605	-0.054016	-0.16052	-0.007935	-0.02121	-0.012817	-0.008087	-0.017395	0.01236	-0.028229	-0.000458	0.003357	0.024872	-0.071716	0.18478	0.06958	0.47928	-0.029449	-0.65109	-0.037537	-0.015106	-0.002441	0.62531	-0.00351	-0.078888	-0.24353	-0.001678	-0.014191
24.099	-0.009918	0.55023	-0.039825	-0.001831	-0.022888	-0.11231	-0.1712	-0.016632	0.066833	-0.005493	-0.006714	-0.014801	0.013428	-0.029144	0.059357	-0.000153	0.019073	-0.023041	0.20874	0.047607	0.46768	-0.015411	-0.63355	-0.026093	-0.005493	-0.005035	0.13687	-0.003357	-0.14633	-0.28442	-0.001526	-0.020447
24.1	-0.009766	0.439	-0.061493	0.003662	0.022888	-0.087891	-0.16007	-0.007782	0.097961	0.000458	-0.00412	-0.009613	0.011902	-0.007324	0.055084	-0.000153	0.010986	0.02182	0.051727	0.12207	0.50064	0.036926	-0.6369	-0.039978	-0.025787	-0.000153	-0.071106	-0.003357	-0.18509	-0.29709	-0.002441	-0.033264
24.101	-0.000763	0.40283	-0.085602	-0.008545	-0.015106	-0.001678	-0.13489	0.013275	0.11704	0.010223	-0.002136	-0.005188	0.010681	-0.003204	0.073547	-0.008392	0.012207	0.013428	-0.37125	0.092773	0.49149	0.049438	-0.63232	-0.026855	-0.032959	-0.002441	-0.068512	-0.007477	-0.18021	-0.32181	0.000305	-0.03067
24.102	0.007782	0.31113	-0.10132	-0.001068	-0.048065	0.12299	-0.058136	0.003967	0.10269	-0.010071	0.000458	-0.00473	0.007477	0.003052	0.067139	0.003052	0.01236	0.034485	-0.51117	0.009155	0.47821	0.038452	-0.60821	-0.044098	-0.012512	-0.00885	-0.11993	-0.005951	-0.058746	-0.25635	-0.000153	-0.027618
24.103	0.031281	0.33493	-0.078125	0.014954	0.000305	0.002441	-0.11917	0.021057	0.15915	-0.005188	-0.004425	0.004578	0.00885	-0.022583	0.053101	0.000916	0.01709	0.09552	0.45593	-0.16235	0.48111	0.013275	-0.6311	-0.01236	-0.00351	-0.00061	-0.24246	-0.002747	-0.023956	-0.17364	-0.001221	-0.020142
24.104	0.039368	0.36987	-0.081024	0.004578	0.029602	-0.16419	-0.066681	0.018311	0.24399	-0.0177	-0.010681	0.002289	0.028381	-0.037231	0.037537	0.002747	0.010071	0.074463	0.72388	-0.19791	0.52628	0.022278	-0.63446	0.005646	-0.002136	0.001221	-0.24124	-0.002136	-0.029755	-0.076294	0	-0.021362
24.105	0.041199	0.42648	-0.051117	0.012817	0.083466	-0.19699	-0.026398	0.003815	0.14496	-0.028381	-0.000305	0.016479	0.019989	-0.057526	0.027924	0.011749	0.015259	0.009918	0.34973	-0.28625	0.51437	0.043945	-0.5693	0.001221	-0.001678	-0.009003	-0.19836	-0.003662	-0.018158	-0.009918	0.000458	-0.019531
24.106	0.031433	0.43854	-0.034332	0.015411	0.073395	-0.12619	-0.16342	-0.002747	-0.058136	-0.014191	-0.006256	0.02655	0.025787	-0.050354	0.019531	0.01236	0.014801	-0.048218	0.33386	-0.35873	0.48157	0.00473	-0.56183	-0.072479	0.002899	-0.002136	-0.096436	-0.003052	-0.022736	0.039825	0	-0.020447
24.107	0.03006	0.49225	-0.009003	-0.007935	0.069275	-0.055695	-0.31952	-0.012207	-0.10864	-0.004272	0.031281	0.028687	0.025787	-0.025635	0.030823	0.02655	0.004272	-0.055695	0.053101	-0.22125	0.46387	-0.010223	-0.56229	-0.042419	0.008698	0.002747	-0.034027	-0.005951	-0.06485	0.036469	-0.000305	-0.014038
24.108	0.027618	0.5014	-0.002594	-0.021973	0.067444	0.017395	-0.34058	-0.016479	-0.08255	0.017548	0.068817	0.037689	0.004883	0.031433	0.03952	0.025482	0.008698	0.005341	-0.2121	-0.13473	0.43457	-0.010223	-0.56183	-0.045319	0.012817	-0.001221	0.02594	-0.002747	-0.068359	0.044098	-0.001526	-0.01358
24.109	0.010071	0.60425	0.009003	-0.011139	0.078735	0.077209	-0.17166	0.014343	-0.093689	0.019531	0.090332	0.039673	-0.011902	0.046997	0.073853	0.017242	-0.001221	0.021057	-0.007019	-0.13916	0.39902	-0.048218	-0.54062	-0.0737	0.017395	0.010529	0.008392	-0.005493	-0.05661	0.023804	0.000763	-0.015259
24.11	0.001678	0.61508	0.020905	-0.014343	0.075226	0.12634	-0.10208	0.048218	-0.04776	0.010529	0.11017	0.047913	-0.000153	0.028992	0.052032	0.019684	-0.023804	-0.004425	-0.094757	-0.03006	0.37918	-0.031738	-0.55801	-0.067139	0.032349	0.003967	-0.055847	-0.002899	0.016174	0.014648	0.003204	-0.018616
24.111	0	0.61493	0.055389	-0.00061	0.046692	0.18936	-0.063477	0.04715	-0.062561	-0.002136	-0.05188	0.04837	0.019073	0.039978	0.010681	0.01358	0.005646	-0.073853	-0.10605	0.042725	0.36331	-0.063324	-0.55023	-0.038757	0.040131	0.008087	-0.038605	-0.001678	0.055084	0.000763	-0.00061	-0.015717
24.112	-0.006714	0.61859	0.085754	0.013275	0.021667	0.21973	-0.023956	0.025177	-0.064697	0.000153	-0.16388	0.052948	0.038147	0.016022	-0.022888	-0.009155	-0.007172	-0.10147	-0.011139	0.076904	0.33814	-0.13443	-0.55054	-0.060272	0.045319	0.013428	0.000916	0.000458	0.09613	0.02182	-0.002289	-0.013428
24.113	-0.023956	0.62485	0.10269	0.010376	0.011902	0.20905	-0.020599	0.012665	-0.17502	-0.000305	-0.074158	0.04837	0.054016	-0.002899	-0.084839	-0.007477	-0.029755	-0.05661	-0.29999	0.076447	0.31281	-0.16754	-0.55039	-0.068207	0.037689	0.015259	0.085754	0.006714	0.020905	-0.059662	-0.000916	-0.0177
24.114	-0.036163	0.57068	0.10925	0.017395	-0.030518	0.17441	0.055389	0.011902	-0.31693	0.016174	-0.037842	0.054016	0.059814	0.019684	-0.085144	-0.003204	-0.018768	-0.06897	-0.17822	0.032349	0.29221	-0.17197	-0.52017	-0.085449	0.039063	0.01358	0.15579	0.004578	-0.070953	-0.37262	0.000153	-0.024872
24.115	-0.040131	0.55206	0.1059	0.001984	-0.093079	0.16098	0.11185	0.016022	-0.33661	0.019836	-0.00946	0.051575	0.060883	-0.000916	-0.098114	-0.019379	-0.016632	-0.074615	-0.22659	0.032043	0.26581	-0.15503	-0.50797	-0.091095	0.038605	0.010986	0.20569	-0.019989	-0.55512	-0.61722	0.000153	-0.025177
24.116	-0.018158	0.56381	0.069275	0.005035	-0.13229	0.057068	0.080261	0.03006	-0.26672	0.026245	0.000763	0.052185	0.067444	0.032806	-0.089264	-0.005341	-0.021362	-0.097504	-0.2652	0.074463	0.20325	-0.16235	-0.5101	-0.08194	0.060883	0.000153	0.13046	-0.098114	-0.69138	-0.3746	0.002594	-0.020294
24.117	0.007324	0.56335	0.056763	-0.016327	-0.13123	-0.000763	0.11322	0.030365	-0.16922	0.01236	-0.002594	0.040741	0.008545	0.020752	-0.076294	-0.00412	-0.007019	-0.059967	-0.33478	0.049438	0.31082	-0.08606	-0.50964	-0.054779	0.060272	0.014496	0.004272	0.043488	-0.35889	0.15106	-0.001984	-0.014648
24.118	-0.008392	0.50781	0.015259	-0.027161	-0.005646	-0.005341	0.04364	0.01358	-0.093384	0.007782	-0.004425	0.042877	-0.036011	0.06897	-0.06073	-0.017242	-0.003204	-0.047302	-0.23895	0.032501	0.35278	0.1033	-0.51056	-0.001526	0.049744	0.02121	-0.017395	0.046997	-0.072784	0.29266	-0.001068	-0.014954
24.119	0.1004	0.44495	0.041504	-0.024261	0.15472	-0.021515	-0.029449	0.013885	-0.072937	-0.012207	-0.017242	0.043335	-0.029755	0.078125	-0.050354	-0.013123	0.023499	-0.041046	-0.17075	0.04364	0.40909	0.065155	-0.47928	0.025787	0.057068	0.035858	-0.059052	-0.025787	0.013733	0.2626	-0.002136	-0.022278
24.12	0.10361	0.38254	0.028534	-0.01358	0.10635	0.080566	-0.084534	0.011292	-0.063934	-0.023346	-0.00351	0.0354	0.014343	0.081635	-0.032654	-0.023804	0.063934	-0.039215	-0.13321	-0.039215	0.38528	-0.025787	-0.44281	-0.010834	0.052795	0.014801	-0.040283	-0.18585	0.092468	0.055237	-0.000305	-0.025177
24.121	0.043793	0.41641	-0.037537	0.003357	0.007935	0.15442	-0.17487	-0.00061	0.12573	-0.023804	0.013733	0.033722	0.074768	0.08606	0.029297	-0.021057	0.10071	0.017395	-0.2359	0.000305	0.33844	0.00412	-0.44952	-0.087433	0.045624	-0.01297	-0.020447	-0.40741	0.31036	-0.56519	-0.002136	-0.025177
24.122	-0.030518	0.47775	-0.028381	0.024567	-0.041504	0.086517	-0.1088	-0.010223	0.23377	-0.027161	0.007019	0.026855	0.14389	0.12589	0.02182	-0.028992	0.11993	0.057831	-0.19684	0.062256	0.35889	0.11215	-0.45166	-0.054321	0.054474	-0.010223	-0.041351	0.20264	0.34134	-0.95352	-0.000916	-0.02182
24.123	-0.022583	0.49789	0.008698	0.041504	-0.047913	-0.037079	-0.084991	0.003052	0.1712	-0.031433	0.010681	0.026703	0.20721	0.15961	-0.003357	-0.016785	0.10147	0.040283	-0.18784	-0.003052	0.34561	0.096283	-0.38681	-0.079346	0.043182	-0.007782	-0.011139	-0.005951	0.048676	-0.2327	-0.000458	-0.020142
24.124	-0.021362	0.52124	0.064392	0.038605	-0.061188	0.14923	-0.12833	0.006104	0.088959	-0.01358	0.015717	0.01709	0.18646	0.18845	0.00473	-0.025177	0.074768	0.048218	-0.0737	0.059662	0.32425	0.033722	-0.35797	-0.053558	0.035858	-0.01709	-0.011902	-0.094299	0.26871	0.48966	-0.000305	-0.017242
24.125	-0.014954	0.58136	0.040894	0.018463	-0.04303	0.21057	-0.062714	0.000305	0.039368	-0.041809	0.023956	0.007019	-0.058441	0.22964	0.014954	-0.037384	0.058594	0.025177	-0.15686	0.12192	0.29159	-0.022736	-0.32516	-0.10422	0.044708	-0.026093	-0.009613	0.29343	0.43716	0.45731	0.001221	-0.016479
